<?xml version="1.0" standalone="no"?>
<!DOCTYPE svg PUBLIC "-//W3C//DTD SVG 20010904//EN"
 "http://www.w3.org/TR/2001/REC-SVG-20010904/DTD/svg10.dtd">
<svg version="1.0" xmlns="http://www.w3.org/2000/svg"
 width="1080.000000pt" height="1080.000000pt" viewBox="0 0 1080.000000 1080.000000"
 preserveAspectRatio="xMidYMid meet">

<g transform="translate(0.000000,1080.000000) scale(0.100000,-0.100000)"
fill="#000000" stroke="none">
<path d="M3997 6573 c-12 -11 -8 -2353 3 -2353 7 0 10 400 10 1180 0 649 -1
1180 -3 1180 -2 0 -7 -3 -10 -7z"/>
<path d="M2305 6229 c-139 -95 -337 -153 -568 -168 -111 -7 -120 -9 -143 -35
-23 -24 -25 -33 -20 -79 2 -29 9 -108 15 -177 33 -437 141 -798 312 -1045 97
-141 291 -295 410 -326 44 -12 49 -11 130 29 300 146 504 473 605 969 48 237
71 596 40 638 -11 15 -33 20 -127 26 -63 4 -134 10 -159 14 -140 22 -313 83
-409 144 -26 17 -50 31 -52 31 -2 0 -17 -9 -34 -21z m138 -369 c62 -23 117
-76 146 -140 16 -36 21 -66 21 -147 0 -96 1 -102 21 -105 12 -2 31 -16 43 -31
19 -26 21 -44 24 -210 4 -208 0 -240 -33 -273 l-24 -24 -299 0 -299 0 -27 26
-26 27 0 217 0 217 26 27 c15 14 33 26 40 26 11 0 14 18 14 75 0 95 16 170 47
217 69 104 203 144 326 98z"/>
<path d="M2278 5724 c-44 -23 -58 -62 -58 -159 l0 -85 125 0 125 0 0 75 c0 86
-16 132 -55 163 -33 26 -96 29 -137 6z"/>
<path d="M2296 5314 c-25 -24 -29 -59 -12 -93 15 -28 15 -34 1 -61 -28 -55
-23 -60 60 -60 42 0 75 4 75 10 0 5 -8 25 -17 45 -14 29 -15 40 -5 55 18 30
14 78 -8 100 -24 24 -72 26 -94 4z"/>
<path d="M6117 6060 c-47 -29 -47 -33 -47 -632 0 -516 1 -566 18 -598 30 -61
121 -71 165 -19 14 17 17 41 17 124 0 57 3 110 6 119 3 8 25 31 49 51 l44 35
178 -180 c174 -176 179 -180 219 -180 57 0 104 43 104 93 0 41 -22 69 -213
271 -71 74 -127 139 -125 143 1 5 66 67 142 138 140 130 167 166 158 211 -7
36 -57 74 -99 74 -36 0 -72 -32 -367 -321 -44 -43 -83 -76 -88 -73 -4 3 -8
161 -8 352 0 401 2 392 -86 399 -27 2 -57 -1 -67 -7z"/>
<path d="M7085 6029 c-30 -18 -35 -29 -35 -85 0 -79 21 -99 103 -99 88 0 107
17 107 95 0 79 -13 93 -91 97 -38 2 -72 -1 -84 -8z"/>
<path d="M5334 6003 c-39 -7 -61 -47 -164 -293 -57 -135 -126 -301 -155 -370
-29 -69 -85 -201 -124 -294 -39 -93 -71 -177 -71 -187 0 -74 82 -112 143 -65
9 7 41 69 71 137 l53 124 273 0 273 0 49 -115 c58 -135 82 -164 134 -164 29 0
43 7 65 32 17 18 29 44 29 59 0 22 -78 216 -195 483 -18 41 -72 167 -120 279
-157 368 -153 361 -215 373 -14 3 -35 3 -46 1z m120 -536 c47 -106 86 -196 86
-200 0 -4 -81 -7 -180 -7 -99 0 -180 4 -180 9 0 5 36 90 80 190 44 100 80 186
80 192 0 5 6 9 14 9 8 0 49 -80 100 -193z"/>
<path d="M8591 5983 c-20 -19 -49 -75 -89 -173 -51 -124 -129 -309 -353 -837
-21 -51 -39 -104 -39 -118 0 -38 42 -75 84 -75 53 0 80 32 131 154 25 60 50
115 56 122 9 11 64 14 268 14 141 0 261 -4 268 -8 6 -4 20 -30 31 -57 52 -131
92 -203 122 -215 36 -15 82 -5 106 22 40 43 30 75 -205 623 -239 559 -248 575
-316 575 -24 0 -44 -8 -64 -27z m153 -507 c47 -107 86 -199 86 -205 0 -14
-346 -16 -355 -2 -3 5 29 87 71 183 42 95 80 183 85 196 5 12 12 22 17 22 5 0
48 -87 96 -194z"/>
<path d="M7930 5733 c-79 -12 -185 -71 -209 -117 -17 -31 -27 -26 -35 18 -14
76 -111 103 -167 47 l-29 -29 0 -407 0 -407 29 -29 c39 -38 97 -40 138 -5 l28
24 5 284 c5 278 5 285 30 332 14 27 42 63 63 80 34 27 46 31 95 30 32 -1 82
-5 112 -9 51 -6 57 -5 79 19 33 35 34 96 2 130 -22 24 -80 48 -106 45 -5 -1
-21 -4 -35 -6z"/>
<path d="M7105 5698 c-45 -26 -44 -24 -45 -454 0 -399 1 -411 20 -432 44 -47
129 -41 160 11 19 30 20 53 20 413 0 253 -4 392 -11 413 -18 52 -94 78 -144
49z"/>
<path d="M5496 4437 c-12 -9 -17 -23 -14 -42 2 -23 10 -32 33 -38 48 -15 60
-23 60 -43 0 -23 -43 -31 -74 -15 -12 7 -22 7 -26 2 -17 -28 83 -42 109 -15
34 34 17 68 -42 84 -36 9 -43 15 -40 33 3 25 50 36 73 17 8 -7 15 -7 19 -1 16
26 -67 41 -98 18z"/>
<path d="M5692 4429 c-6 -13 -22 -50 -36 -83 -14 -32 -26 -62 -26 -67 0 -17
18 -9 23 11 8 30 91 29 107 -1 7 -11 14 -18 17 -15 8 7 -46 146 -63 165 -11
12 -15 11 -22 -10z m35 -58 c13 -34 9 -41 -24 -41 -25 0 -30 19 -13 51 15 26
24 24 37 -10z"/>
<path d="M5820 4360 c0 -53 4 -90 10 -90 6 0 10 18 10 40 0 39 1 40 35 40 19
0 35 5 35 10 0 6 -16 10 -35 10 -32 0 -35 2 -35 30 0 29 2 30 45 30 25 0 45 5
45 10 0 6 -25 10 -55 10 l-55 0 0 -90z"/>
<path d="M5970 4360 l0 -90 55 0 c30 0 55 5 55 10 0 6 -20 10 -45 10 -43 0
-45 1 -45 30 0 28 2 30 40 30 22 0 40 5 40 10 0 6 -18 10 -40 10 -38 0 -40 2
-40 30 0 29 2 30 45 30 25 0 45 5 45 10 0 6 -25 10 -55 10 l-55 0 0 -90z"/>
<path d="M6346 4434 c-9 -8 -16 -23 -16 -33 0 -23 31 -51 56 -51 29 0 46 -15
42 -36 -4 -23 -47 -30 -78 -14 -22 12 -27 1 -8 -18 17 -17 83 -15 97 2 7 8 11
27 9 42 -2 21 -12 30 -48 43 -33 12 -45 22 -45 36 0 24 48 33 71 14 19 -16 30
-4 14 16 -16 20 -74 19 -94 -1z"/>
<path d="M6500 4360 l0 -90 55 0 c30 0 55 5 55 10 0 6 -20 10 -45 10 -43 0
-45 1 -45 30 0 28 2 30 41 30 24 0 38 4 34 10 -3 6 -22 10 -41 10 -31 0 -34 2
-34 30 0 29 2 30 45 30 25 0 45 5 45 10 0 6 -25 10 -55 10 l-55 0 0 -90z"/>
<path d="M6670 4421 c-38 -38 -39 -78 -4 -121 23 -27 32 -31 67 -28 22 2 42 8
44 15 3 8 -6 10 -32 6 -48 -8 -75 17 -75 67 0 50 27 75 75 67 26 -4 35 -2 32
6 -2 7 -20 13 -40 15 -30 3 -43 -2 -67 -27z"/>
<path d="M6826 4443 c-10 -11 -7 -113 5 -136 16 -30 28 -37 66 -37 46 0 63 29
63 112 0 90 -18 87 -22 -3 -3 -80 -16 -97 -61 -85 -26 6 -27 9 -27 76 0 64 -8
89 -24 73z"/>
<path d="M7010 4359 c0 -68 3 -90 13 -87 6 3 13 17 15 31 3 24 8 27 41 27 35
0 39 -3 45 -30 3 -19 12 -30 22 -30 12 0 14 3 6 13 -16 20 -24 74 -13 82 17
10 13 50 -7 68 -12 11 -36 17 -70 17 l-52 0 0 -91z m108 55 c18 -33 3 -54 -39
-54 -38 0 -39 1 -39 35 0 33 2 35 35 35 21 0 37 -6 43 -16z"/>
<path d="M7200 4360 l0 -90 55 0 c30 0 55 5 55 10 0 6 -20 10 -45 10 -43 0
-45 1 -45 30 0 28 2 30 40 30 22 0 40 5 40 10 0 6 -18 10 -40 10 -38 0 -40 2
-40 30 0 29 2 30 45 30 25 0 45 5 45 10 0 6 -25 10 -55 10 l-55 0 0 -90z"/>
<path d="M7564 4437 c-10 -27 1 -160 14 -165 9 -3 12 18 12 82 0 78 -12 118
-26 83z"/>
<path d="M7640 4360 l0 -90 54 0 c48 0 57 4 76 28 17 21 21 36 17 70 -7 63
-29 82 -94 82 l-53 0 0 -90z m109 57 c21 -26 24 -75 7 -102 -13 -20 -25 -25
-56 -25 l-40 0 0 70 0 70 39 0 c21 0 44 -6 50 -13z"/>
<path d="M7830 4360 l0 -90 55 0 c30 0 55 5 55 10 0 6 -21 10 -46 10 -44 0
-45 1 -42 28 3 23 8 27 41 30 50 4 48 22 -3 22 -38 0 -40 2 -40 30 0 29 2 30
45 30 25 0 45 5 45 10 0 6 -25 10 -55 10 l-55 0 0 -90z"/>
<path d="M8024 4413 c-26 -62 -54 -133 -54 -138 0 -14 18 -2 23 15 8 31 89 29
110 -2 8 -13 17 -21 20 -18 7 7 -65 180 -75 180 -4 0 -15 -17 -24 -37z m43
-42 c13 -34 9 -41 -24 -41 -25 0 -30 19 -13 51 15 26 24 24 37 -10z"/>
<path d="M8160 4360 l0 -90 55 0 c30 0 55 5 55 10 0 6 -20 10 -45 10 l-45 0 0
80 c0 47 -4 80 -10 80 -6 0 -10 -37 -10 -90z"/>
<path d="M6190 4351 c0 -6 5 -13 10 -16 6 -3 10 1 10 9 0 9 -4 16 -10 16 -5 0
-10 -4 -10 -9z"/>
<path d="M7420 4345 c0 -8 5 -15 10 -15 6 0 10 7 10 15 0 8 -4 15 -10 15 -5 0
-10 -7 -10 -15z"/>
</g>
</svg>
