<?xml version="1.0" standalone="no"?>
<!DOCTYPE svg PUBLIC "-//W3C//DTD SVG 20010904//EN"
 "http://www.w3.org/TR/2001/REC-SVG-20010904/DTD/svg10.dtd">
<svg version="1.0" xmlns="http://www.w3.org/2000/svg"
 width="1080.000000pt" height="1080.000000pt" viewBox="0 0 1080.000000 1080.000000"
 preserveAspectRatio="xMidYMid meet">

<g transform="translate(0.000000,1080.000000) scale(0.100000,-0.100000)"
fill="#000000" stroke="none">
<path d="M5345 10620 c-67 -14 -91 -26 -233 -124 -351 -240 -774 -437 -1277
-594 -680 -213 -1349 -318 -2170 -342 -159 -4 -306 -13 -325 -19 -97 -29 -185
-119 -218 -221 -33 -104 -19 -844 29 -1505 115 -1606 454 -3131 966 -4335 97
-228 317 -674 430 -870 426 -739 930 -1323 1528 -1771 293 -220 676 -432 1065
-590 153 -62 156 -63 255 -63 97 -1 104 1 225 48 666 263 1180 603 1687 1117
285 289 471 519 710 879 801 1204 1341 2896 1572 4920 57 496 95 1081 106
1640 7 382 -1 507 -40 585 -36 71 -99 128 -174 156 -51 20 -84 22 -346 30
-849 23 -1556 139 -2253 368 -510 168 -929 374 -1295 636 -69 49 -165 71 -242
55z m180 -2070 c324 -29 601 -148 845 -363 238 -209 399 -482 467 -792 26
-119 26 -124 30 -616 l4 -496 62 -11 c177 -33 340 -176 400 -352 l22 -65 3
-1045 c2 -656 -1 -1076 -7 -1127 -25 -207 -161 -367 -371 -439 -53 -18 -111
-19 -1575 -19 -1447 0 -1523 1 -1580 18 -86 27 -144 59 -205 114 -68 61 -125
149 -151 233 -19 63 -19 92 -17 1186 l3 1121 43 87 c76 154 211 259 370 288
l62 12 0 453 c0 499 6 570 61 763 17 60 57 161 94 235 228 461 664 764 1170
814 112 11 156 12 270 1z"/>
<path d="M5259 7806 c-142 -30 -266 -96 -368 -196 -131 -127 -203 -279 -221
-462 -6 -57 -9 -274 -8 -483 l3 -380 735 0 735 0 0 450 c0 506 -1 516 -75 670
-90 187 -271 336 -475 390 -84 23 -245 28 -326 11z"/>
<path d="M5255 5487 c-301 -112 -393 -478 -178 -708 l45 -48 -102 -241 c-111
-265 -115 -287 -60 -315 43 -22 837 -22 879 0 28 14 41 33 41 61 0 8 -46 122
-101 254 l-101 240 45 49 c159 170 156 422 -6 599 -111 119 -308 166 -462 109z"/>
</g>
</svg>
